<svg width="15" height="53" viewBox="0 0 15 53" fill="none" xmlns="http://www.w3.org/2000/svg">
<path d="M13.2352 6.32466C13.5094 6.29973 13.7711 6.72347 14.0203 7.59588C14.2945 8.49321 14.4316 9.22852 14.4316 9.80181C14.4316 10.076 14.3818 10.2006 14.2821 10.1757L8.44942 7.33415C8.37464 7.30923 8.33725 7.23445 8.33725 7.10982C8.33725 7.01012 8.37464 6.96027 8.44942 6.96027L13.2352 6.32466ZM8.67375 1.35196C8.69867 1.1027 9.12241 0.978071 9.94496 0.978071C10.5681 0.978071 11.1913 1.04039 11.8144 1.16502C12.4625 1.31457 12.7367 1.4392 12.637 1.5389L8.11292 6.24988C8.08799 6.29973 8.01321 6.29973 7.88858 6.24988C7.78888 6.22496 7.75149 6.18757 7.77642 6.13772L8.67375 1.35196ZM7.5147 7.8576C7.5147 7.80774 7.56455 7.77036 7.66425 7.74543C7.76395 7.7205 7.82627 7.73297 7.8512 7.78282L9.94496 12.1199C10.0447 12.3442 9.82033 12.6558 9.27197 13.0546C8.7236 13.4784 8.13784 13.8398 7.5147 14.1389C6.91648 14.438 6.61737 14.5128 6.61737 14.3632L7.5147 7.8576ZM2.57938 4.1935C2.47968 4.16858 2.42983 4.04395 2.42983 3.81961C2.42983 3.49558 2.542 3.04691 2.76633 2.47362C2.99066 1.90033 3.22746 1.40181 3.47671 0.978071C3.7509 0.554332 3.91292 0.392314 3.96277 0.492018L7.02864 6.21249L7.06603 6.28727C7.06603 6.36205 7.02864 6.42436 6.95386 6.47421C6.90401 6.54899 6.85416 6.57392 6.80431 6.54899L2.57938 4.1935ZM6.65476 7.1846C6.70461 7.15967 6.76692 7.19706 6.8417 7.29677C6.9414 7.39647 6.96633 7.47125 6.91648 7.5211L3.36455 10.8487C3.21499 10.9982 2.85357 10.8736 2.28027 10.4748C1.73191 10.1009 1.22093 9.66472 0.747337 9.1662C0.298672 8.66769 0.149117 8.40596 0.298672 8.38104L6.65476 7.1846Z" fill="#E5E9F4"/>
<path d="M13.2352 25.2381C13.5094 25.2132 13.7711 25.6369 14.0203 26.5093C14.2945 27.4066 14.4316 28.142 14.4316 28.7153C14.4316 28.9894 14.3818 29.1141 14.2821 29.0891L8.44941 26.2476C8.37464 26.2227 8.33725 26.1479 8.33725 26.0233C8.33725 25.9236 8.37464 25.8737 8.44941 25.8737L13.2352 25.2381ZM8.67375 20.2654C8.69867 20.0161 9.12241 19.8915 9.94496 19.8915C10.5681 19.8915 11.1913 19.9538 11.8144 20.0785C12.4625 20.228 12.7367 20.3526 12.637 20.4523L8.11292 25.1633C8.08799 25.2132 8.01321 25.2132 7.88858 25.1633C7.78888 25.1384 7.75149 25.101 7.77642 25.0512L8.67375 20.2654ZM7.51469 26.771C7.51469 26.7212 7.56455 26.6838 7.66425 26.6589C7.76395 26.6339 7.82627 26.6464 7.85119 26.6963L9.94496 31.0333C10.0447 31.2577 9.82033 31.5693 9.27196 31.9681C8.7236 32.3918 8.13784 32.7532 7.51469 33.0523C6.91648 33.3515 6.61736 33.4262 6.61736 33.2767L7.51469 26.771ZM2.57938 23.1069C2.47968 23.082 2.42983 22.9574 2.42983 22.7331C2.42983 22.409 2.542 21.9604 2.76633 21.3871C2.99066 20.8138 3.22745 20.3152 3.47671 19.8915C3.7509 19.4678 3.91291 19.3058 3.96277 19.4055L7.02864 25.1259L7.06603 25.2007C7.06603 25.2755 7.02864 25.3378 6.95386 25.3877C6.90401 25.4624 6.85416 25.4874 6.80431 25.4624L2.57938 23.1069ZM6.65475 26.098C6.70461 26.0731 6.76692 26.1105 6.8417 26.2102C6.9414 26.3099 6.96633 26.3847 6.91648 26.4345L3.36455 29.7621C3.21499 29.9117 2.85357 29.7871 2.28027 29.3882C1.73191 29.0144 1.22093 28.5782 0.747336 28.0796C0.298671 27.5811 0.149116 27.3194 0.298672 27.2945L6.65475 26.098Z" fill="#E5E9F4"/>
<path d="M13.2352 44.1515C13.5094 44.1266 13.7711 44.5503 14.0203 45.4228C14.2945 46.3201 14.4316 47.0554 14.4316 47.6287C14.4316 47.9029 14.3818 48.0275 14.2821 48.0026L8.44941 45.161C8.37464 45.1361 8.33725 45.0613 8.33725 44.9367C8.33725 44.837 8.37464 44.7871 8.44941 44.7871L13.2352 44.1515ZM8.67375 39.1788C8.69867 38.9296 9.12241 38.8049 9.94496 38.8049C10.5681 38.8049 11.1913 38.8673 11.8144 38.9919C12.4625 39.1414 12.7367 39.2661 12.6369 39.3658L8.11291 44.0768C8.08799 44.1266 8.01321 44.1266 7.88858 44.0768C7.78888 44.0518 7.75149 44.0144 7.77642 43.9646L8.67375 39.1788ZM7.51469 45.6845C7.51469 45.6346 7.56455 45.5972 7.66425 45.5723C7.76395 45.5474 7.82627 45.5598 7.85119 45.6097L9.94496 49.9468C10.0447 50.1711 9.82033 50.4827 9.27196 50.8815C8.7236 51.3052 8.13784 51.6667 7.51469 51.9658C6.91647 52.2649 6.61736 52.3397 6.61736 52.1901L7.51469 45.6845ZM2.57938 42.0204C2.47968 41.9955 2.42983 41.8708 2.42983 41.6465C2.42983 41.3225 2.54199 40.8738 2.76633 40.3005C2.99066 39.7272 3.22745 39.2287 3.47671 38.8049C3.7509 38.3812 3.91291 38.2192 3.96277 38.3189L7.02864 44.0394L7.06603 44.1141C7.06603 44.1889 7.02864 44.2512 6.95386 44.3011C6.90401 44.3759 6.85416 44.4008 6.80431 44.3759L2.57938 42.0204ZM6.65475 45.0115C6.7046 44.9865 6.76692 45.0239 6.8417 45.1236C6.9414 45.2233 6.96633 45.2981 6.91648 45.348L3.36454 48.6756C3.21499 48.8251 2.85357 48.7005 2.28027 48.3017C1.7319 47.9278 1.22093 47.4916 0.747335 46.9931C0.298671 46.4946 0.149115 46.2328 0.298671 46.2079L6.65475 45.0115Z" fill="#E5E9F4"/>
</svg>
