<svg width="86" height="19" viewBox="0 0 86 19" fill="none" xmlns="http://www.w3.org/2000/svg">
<path d="M38.8382 2.54139C39.6023 2.54139 40.3745 2.60642 41.1549 2.73649C41.9516 2.8503 42.5857 3.00475 43.0571 3.19985C43.2035 3.24862 43.2929 3.31365 43.3254 3.39495C43.3742 3.45998 43.4067 3.58191 43.423 3.76075L43.74 7.15058C43.74 7.19936 43.6993 7.23187 43.6181 7.24813C43.5368 7.26439 43.4799 7.24 43.4473 7.17497C42.9921 5.8418 42.3418 4.82566 41.4964 4.12656C40.6509 3.4112 39.6348 3.05352 38.448 3.05352C37.3424 3.05352 36.3507 3.3543 35.4727 3.95585C34.611 4.54115 33.9282 5.38657 33.4242 6.49213C32.9364 7.59768 32.6926 8.89021 32.6926 10.3697C32.6926 11.8655 32.9446 13.1824 33.4486 14.3204C33.9688 15.4422 34.6761 16.3121 35.5703 16.9299C36.4807 17.5314 37.5212 17.8322 38.6918 17.8322C39.8136 17.8322 40.7566 17.5314 41.5207 16.9299C42.2849 16.3121 43.0084 15.3041 43.6912 13.9059C43.7075 13.8571 43.7562 13.8408 43.8375 13.8571C43.9188 13.8733 43.9595 13.9058 43.9595 13.9546L43.5937 16.9786C43.5611 17.1737 43.5286 17.3038 43.4961 17.3688C43.4636 17.4176 43.3742 17.4745 43.2279 17.5396C41.7321 18.0761 40.2201 18.3443 38.6918 18.3443C36.9522 18.3443 35.3914 18.0192 34.0095 17.3688C32.6438 16.7023 31.5708 15.7755 30.7904 14.5887C30.01 13.4018 29.6198 12.0524 29.6198 10.5404C29.6198 8.99588 30.0181 7.62207 30.8147 6.41896C31.6277 5.1996 32.7332 4.2485 34.1314 3.56566C35.5459 2.88281 37.1148 2.54139 38.8382 2.54139Z" fill="#1D1D1C"/>
<path d="M54.7548 16.7348C54.8199 16.7348 54.8605 16.7754 54.8768 16.8567C54.9093 16.9217 54.893 16.9705 54.828 17.003L52.3161 18.198C52.2511 18.2305 52.1698 18.2468 52.0722 18.2468C51.8121 18.2468 51.5601 18.1086 51.3162 17.8322C51.0886 17.5558 50.926 17.1819 50.8285 16.7104L49.7798 17.442C49.4059 17.7184 49.0563 17.9216 48.7312 18.0517C48.406 18.1655 48.0402 18.2224 47.6338 18.2224C46.9347 18.2224 46.4063 18.0679 46.0486 17.759C45.6909 17.4501 45.5121 17.0193 45.5121 16.4665C45.5121 16.0275 45.6177 15.678 45.8291 15.4179C46.0405 15.1415 46.3006 14.9301 46.6095 14.7838C46.9347 14.6212 47.3818 14.4424 47.9508 14.2473L48.5605 14.0278L50.7553 13.223V11.8329C50.7553 10.7924 50.6659 10.0364 50.4871 9.56492C50.3245 9.09343 50.04 8.85769 49.6335 8.85769C48.7718 8.85769 48.2841 9.52427 48.1703 10.8574C48.1215 11.3452 47.9752 11.6947 47.7313 11.9061C47.5037 12.1175 47.1785 12.2231 46.7558 12.2231C46.3494 12.2231 46.0486 12.1418 45.8535 11.9793C45.6746 11.8004 45.5852 11.5728 45.5852 11.2964C45.5852 10.8087 45.8697 10.3453 46.4388 9.90634C47.0078 9.45111 47.6907 9.0853 48.4873 8.80891C49.3002 8.53253 50.0156 8.39433 50.6334 8.39433C51.3487 8.39433 51.9259 8.62195 52.3649 9.07717C52.8201 9.51614 53.0477 10.1909 53.0477 11.1013V15.4179C53.0477 15.8893 53.129 16.2552 53.2916 16.5153C53.4704 16.7754 53.7143 16.9055 54.0232 16.9055C54.2508 16.9055 54.4866 16.8486 54.7304 16.7348H54.7548ZM50.7797 16.2958C50.7635 16.2308 50.7553 16.1251 50.7553 15.9788V13.6376L49.7067 14.1253C49.6579 14.1416 49.4953 14.2066 49.2189 14.3204C48.9425 14.418 48.6987 14.5887 48.4873 14.8326C48.2922 15.0764 48.1947 15.361 48.1947 15.6861C48.1947 16.0763 48.3166 16.3852 48.5605 16.6128C48.8206 16.8242 49.1132 16.9299 49.4384 16.9299C49.6985 16.9299 49.9668 16.8405 50.2432 16.6616L50.7797 16.2958Z" fill="#1D1D1C"/>
<path d="M61.6052 8.39433C61.9791 8.39433 62.3368 8.53253 62.6782 8.80891C63.0359 9.06905 63.2147 9.38608 63.2147 9.76002C63.2147 10.1014 63.1091 10.386 62.8977 10.6136C62.6863 10.8249 62.41 10.9306 62.0685 10.9306C61.8247 10.9306 61.6214 10.8818 61.4589 10.7843C61.3125 10.6867 61.1581 10.5404 60.9955 10.3453C60.8492 10.1827 60.7191 10.0689 60.6053 10.0039C60.5077 9.9226 60.3858 9.88195 60.2395 9.88195C60.0769 9.88195 59.8981 9.94699 59.703 10.0771C59.5241 10.1909 59.2396 10.4429 58.8494 10.8331V16.0763C58.8494 16.7266 59.0039 17.1737 59.3128 17.4176C59.6217 17.6452 60.1907 17.759 61.0199 17.759C61.0849 17.759 61.1174 17.8078 61.1174 17.9054C61.1174 18.0029 61.0849 18.0517 61.0199 18.0517C60.4508 18.0517 60.0037 18.0436 59.6786 18.0273L57.7032 18.0029L56.2644 18.0273C56.0205 18.0436 55.6872 18.0517 55.2645 18.0517C55.2157 18.0517 55.1913 18.0029 55.1913 17.9054C55.1913 17.8078 55.2157 17.759 55.2645 17.759C55.7685 17.759 56.1099 17.6452 56.2888 17.4176C56.4676 17.1737 56.557 16.7266 56.557 16.0763V11.4915C56.557 10.9875 56.492 10.6217 56.3619 10.3941C56.2481 10.1502 56.0611 10.0283 55.801 10.0283C55.5246 10.0283 55.1344 10.1421 54.6304 10.3697H54.5816C54.5329 10.3697 54.4922 10.3291 54.4597 10.2478C54.4435 10.1665 54.4516 10.1177 54.4841 10.1014L57.8739 8.44311C57.9715 8.41059 58.0284 8.39433 58.0446 8.39433C58.2235 8.39433 58.3861 8.56504 58.5324 8.90646C58.695 9.23163 58.7925 9.67873 58.825 10.2478C59.4916 9.56492 60.0363 9.0853 60.459 8.80891C60.8979 8.53253 61.28 8.39433 61.6052 8.39433Z" fill="#1D1D1C"/>
<path d="M75.0471 16.4665C75.0959 16.4665 75.1365 16.5072 75.1691 16.5884C75.2178 16.6697 75.226 16.7185 75.1934 16.7348L71.828 18.3687L71.7061 18.3931C71.5597 18.3931 71.4216 18.2387 71.2915 17.9297C71.1777 17.6208 71.1045 17.1981 71.072 16.6616C69.8689 17.7997 68.6414 18.3687 67.3895 18.3687C66.6742 18.3687 66.0238 18.1817 65.4385 17.8078C64.8695 17.4339 64.4143 16.8892 64.0729 16.1739C63.7314 15.4422 63.5607 14.5887 63.5607 13.6132C63.5607 12.3776 63.8452 11.3696 64.4143 10.5892C64.9996 9.79253 65.7149 9.21537 66.5604 8.85769C67.422 8.50001 68.2837 8.32117 69.1454 8.32117C69.747 8.32117 70.381 8.41872 71.0476 8.61382V3.68759C71.0476 3.11856 70.9907 2.7121 70.8769 2.46823C70.7794 2.22436 70.6005 2.10242 70.3404 2.10242C70.129 2.10242 69.8283 2.19184 69.4381 2.37068H69.4137C69.3486 2.37068 69.2917 2.33004 69.243 2.24874C69.2104 2.1512 69.2104 2.09429 69.243 2.07803L72.8279 0.395313L72.9254 0.370926C73.0067 0.370926 73.0961 0.411571 73.1937 0.492862C73.2912 0.557895 73.34 0.622928 73.34 0.68796V15.2228C73.34 15.7755 73.3888 16.1657 73.4863 16.3933C73.6001 16.621 73.779 16.7348 74.0229 16.7348C74.2342 16.7348 74.5675 16.6454 75.0227 16.4665H75.0471ZM68.7308 17.1981C69.5437 17.1981 70.316 16.8567 71.0476 16.1739V16.0519V10.1258C70.755 9.71937 70.4217 9.42673 70.0477 9.24789C69.6901 9.05279 69.2673 8.95524 68.7796 8.95524C67.9017 8.95524 67.2269 9.26414 66.7555 9.88195C66.3002 10.4835 66.0726 11.4671 66.0726 12.8328C66.0726 14.1985 66.3165 15.2715 66.8042 16.0519C67.292 16.8161 67.9342 17.1981 68.7308 17.1981Z" fill="#1D1D1C"/>
<path d="M80.5042 18.3687C79.4961 18.3687 78.6101 18.1411 77.8459 17.6859C77.0981 17.2144 76.5209 16.5884 76.1144 15.8081C75.708 15.0114 75.5048 14.1497 75.5048 13.223C75.5048 12.1662 75.773 11.272 76.3095 10.5404C76.8461 9.79253 77.5289 9.23976 78.3581 8.88208C79.1872 8.50814 80.0408 8.32117 80.9187 8.32117C81.9267 8.32117 82.8047 8.55691 83.5526 9.0284C84.3004 9.49989 84.8695 10.1258 85.2597 10.9062C85.6661 11.6704 85.8693 12.4914 85.8693 13.3693C85.8693 14.3448 85.6255 15.2146 85.1377 15.9788C84.65 16.7266 83.9915 17.3119 83.1624 17.7346C82.3495 18.1574 81.4634 18.3687 80.5042 18.3687ZM81.2358 17.8566C81.8698 17.8566 82.3495 17.5477 82.6746 16.9299C83.016 16.2958 83.1867 15.3935 83.1867 14.2229C83.1867 13.0848 83.0404 12.1093 82.7478 11.2964C82.4551 10.4835 82.0731 9.87382 81.6016 9.46737C81.1301 9.04466 80.6261 8.8333 80.0896 8.8333C78.7889 8.8333 78.1386 9.99576 78.1386 12.3207C78.1386 13.41 78.2768 14.3773 78.5532 15.2228C78.8296 16.0519 79.2035 16.7023 79.675 17.1737C80.1465 17.629 80.6667 17.8566 81.2358 17.8566Z" fill="#1D1D1C"/>
<path fill-rule="evenodd" clip-rule="evenodd" d="M14.5249 2.44389C14.5249 2.44389 15.394 6.83632 16.873 8.14383C18.3503 9.45134 22.5719 10.4917 22.5719 10.4917C22.5719 10.4917 18.3519 11.5399 16.873 12.8396C15.394 14.1392 14.5249 18.5395 14.5249 18.5395C14.5249 18.5395 13.6557 14.1471 12.1768 12.8396C12.0145 12.6961 11.8192 12.5558 11.6 12.4198C11.3795 12.5559 11.183 12.6962 11.0199 12.8396C9.54096 14.1392 8.67182 18.5395 8.67182 18.5395C8.67182 18.5395 7.80269 14.1471 6.32373 12.8396C4.84478 11.5321 0.623245 10.4917 0.623245 10.4917C0.623245 10.4917 4.84635 9.44352 6.32373 8.14386C7.80111 6.84421 8.67182 2.44393 8.67182 2.44393C8.67182 2.44393 9.54096 6.83635 11.0199 8.14386C11.1821 8.28744 11.3775 8.42779 11.5966 8.56389C11.8172 8.42765 12.0137 8.28727 12.1768 8.14383C13.6542 6.84417 14.5249 2.44389 14.5249 2.44389Z" fill="url(#paint0_linear_0_169)"/>
<defs>
<linearGradient id="paint0_linear_0_169" x1="11.5976" y1="2.44389" x2="11.5976" y2="18.5395" gradientUnits="userSpaceOnUse">
<stop stop-color="#F2DCE2"/>
<stop offset="1" stop-color="#A5AFD4"/>
</linearGradient>
</defs>
</svg>
