<svg width="38" height="24" viewBox="0 0 38 24" fill="none" xmlns="http://www.w3.org/2000/svg">
<path d="M17.7805 20.9257C17.869 21.0005 17.9637 21.0753 18.0568 21.1486C16.1995 22.3846 14.0176 23.0423 11.7866 23.0386C10.0199 23.0386 8.27775 22.6251 6.69945 21.8313C5.12115 21.0375 3.75053 19.8853 2.6972 18.467C1.64387 17.0486 0.937069 15.4035 0.633334 13.6631C0.3296 11.9227 0.437358 10.1354 0.947991 8.44413C1.45862 6.75285 2.35796 5.20453 3.57406 3.92301C4.79017 2.6415 6.2893 1.66236 7.95154 1.06391C9.61378 0.465453 11.393 0.264294 13.1469 0.476522C14.9008 0.688749 16.5807 1.30847 18.0522 2.28612C17.9606 2.36398 17.869 2.43574 17.8003 2.51513C16.4778 3.65624 15.4167 5.06894 14.6893 6.65704C13.9619 8.24515 13.5853 9.97135 13.5851 11.7181C13.5855 13.4636 13.9601 15.1887 14.6839 16.777C15.4076 18.3654 16.4635 19.7801 17.7805 20.9257ZM25.7819 0.39606C23.4613 0.39606 21.3071 1.09224 19.5148 2.28612C19.6064 2.36398 19.698 2.43574 19.7667 2.51513C21.0892 3.65624 22.1503 5.06894 22.8777 6.65704C23.6051 8.24515 23.9817 9.97135 23.9819 11.7181C23.9809 13.4635 23.606 15.1884 22.8823 16.7767C22.1586 18.3649 21.103 19.7797 19.7865 20.9257C19.698 21.0005 19.6033 21.0753 19.5102 21.1486C21.3673 22.385 23.5494 23.0428 25.7804 23.0386C27.2673 23.0392 28.7398 22.7469 30.1137 22.1782C31.4877 21.6095 32.7361 20.7757 33.7876 19.7245C34.8392 18.6732 35.6733 17.425 36.2424 16.0512C36.8114 14.6775 37.1042 13.2051 37.104 11.7181C37.1036 8.71544 35.9106 5.83587 33.7874 3.71266C31.6642 1.58945 28.7846 0.396465 25.7819 0.39606ZM18.7835 2.82352C17.4348 3.88042 16.3446 5.23072 15.5957 6.7719C14.8468 8.31307 14.4589 10.0046 14.4614 11.7181C14.4584 13.4319 14.8461 15.1238 15.5951 16.6653C16.344 18.2068 17.4344 19.5573 18.7835 20.6142C20.1322 19.557 21.2224 18.2064 21.9713 16.665C22.7202 15.1236 23.1081 13.4318 23.1056 11.7181C23.1081 10.0046 22.7202 8.31307 21.9713 6.7719C21.2224 5.23072 20.1322 3.88042 18.7835 2.82352Z" fill="#1D1D1C"/>
</svg>
