<svg width="10" height="17" viewBox="0 0 10 17" fill="none" xmlns="http://www.w3.org/2000/svg">
<path d="M6.61464 15.3716C6.1974 15.7731 5.71998 16.1512 5.22216 16.4812C5.16705 16.5182 5.10486 16.5444 5.03915 16.5583C4.97345 16.5722 4.90553 16.5735 4.83931 16.562C4.7731 16.5506 4.70989 16.5267 4.65334 16.4917C4.59678 16.4568 4.54799 16.4114 4.50977 16.3582C4.47156 16.3051 4.44468 16.2452 4.43067 16.182C4.41667 16.1188 4.41582 16.0536 4.42818 15.9902C4.44054 15.9267 4.46586 15.8662 4.50268 15.8121C4.5395 15.7581 4.5871 15.7115 4.64273 15.6752C5.70787 14.9754 6.59929 14.0589 7.2536 12.9908C7.90791 11.9228 8.30903 10.7294 8.42843 9.49567C8.54783 8.26193 8.38258 7.01808 7.94444 5.85259C7.50629 4.6871 6.80601 3.62861 5.89341 2.7524C5.50875 2.38957 5.09161 2.05991 4.64681 1.76722C4.5894 1.73156 4.54005 1.68518 4.50168 1.63084C4.46332 1.57651 4.43673 1.51532 4.42349 1.45092C4.41026 1.38651 4.41065 1.32022 4.42464 1.25596C4.43862 1.19171 4.46593 1.13081 4.50493 1.07689C4.54392 1.02297 4.59382 0.977122 4.65164 0.942081C4.70946 0.907041 4.77403 0.88352 4.84152 0.872916C4.909 0.862312 4.97801 0.864842 5.04445 0.880356C5.1109 0.895869 5.17341 0.924049 5.22828 0.96322C5.73835 1.30206 6.21373 1.67615 6.61566 2.06101C8.45441 3.82628 9.4874 6.22043 9.4874 8.71681C9.4874 11.2132 8.45441 13.6073 6.61566 15.3726L6.61464 15.3716ZM4.60192 13.1829C4.10493 13.6536 3.53508 14.0477 2.91259 14.3512C2.85277 14.3827 2.78696 14.4024 2.71906 14.4091C2.65116 14.4158 2.58256 14.4093 2.51731 14.3901C2.45207 14.3708 2.39151 14.3392 2.33923 14.2971C2.28694 14.255 2.24399 14.2032 2.21292 14.1449C2.18185 14.0866 2.1633 14.0228 2.15836 13.9575C2.15341 13.8921 2.16218 13.8265 2.18414 13.7645C2.2061 13.7024 2.24081 13.6452 2.28621 13.5963C2.33161 13.5474 2.38677 13.5077 2.44843 13.4796C2.97599 13.2226 3.45909 12.889 3.88069 12.4905C4.50201 11.8943 4.96729 11.1652 5.23839 10.363C5.50949 9.56075 5.5787 8.70828 5.44035 7.87544C5.30199 7.0426 4.96001 6.25308 4.44243 5.57162C3.92485 4.89015 3.2464 4.33613 2.46272 3.95497C2.40258 3.92613 2.34898 3.88616 2.30499 3.83736C2.261 3.78856 2.22749 3.73189 2.20639 3.67062C2.1853 3.60934 2.17703 3.54467 2.18206 3.48032C2.18709 3.41596 2.20532 3.3532 2.23571 3.29563C2.26609 3.23807 2.30803 3.18683 2.35912 3.14488C2.4102 3.10293 2.46942 3.07109 2.53337 3.05118C2.59731 3.03128 2.66473 3.0237 2.73174 3.0289C2.79874 3.03409 2.86402 3.05195 2.92381 3.08144C3.85125 3.53255 4.65412 4.18822 5.26663 4.9947C5.87914 5.80119 6.28385 6.73554 6.44759 7.72116C6.61133 8.70678 6.52943 9.71562 6.20861 10.665C5.88779 11.6144 5.33719 12.4772 4.60192 13.1829ZM2.05466 11.5083C1.69354 11.856 1.24876 12.1419 0.775424 12.3407C0.651835 12.391 0.51259 12.3924 0.387882 12.3448C0.263173 12.2971 0.163051 12.2042 0.109224 12.0862C0.0553975 11.9682 0.0522056 11.8345 0.100339 11.7142C0.148472 11.594 0.244051 11.4967 0.366354 11.4437C0.726001 11.2934 1.05381 11.081 1.33343 10.8169C1.62085 10.5411 1.84884 10.2136 2.0044 9.85319C2.15995 9.49277 2.24001 9.10646 2.24001 8.71632C2.24001 8.32619 2.15995 7.93987 2.0044 7.57945C1.84884 7.21902 1.62085 6.89155 1.33343 6.61573C1.05736 6.35432 0.732829 6.14475 0.376555 5.99779C0.314405 5.97252 0.258098 5.93565 0.210898 5.88934C0.163698 5.84302 0.126543 5.78817 0.101586 5.72797C0.0766304 5.66777 0.064368 5.60341 0.0655125 5.53862C0.0666569 5.47384 0.0811842 5.40992 0.108251 5.35056C0.13532 5.2912 0.17439 5.2376 0.223198 5.19284C0.272007 5.14809 0.329582 5.11308 0.392588 5.08984C0.455595 5.06661 0.522778 5.05561 0.590246 5.05748C0.657714 5.05935 0.724124 5.07406 0.785626 5.10075C1.25834 5.29665 1.68874 5.57565 2.05466 5.92336C2.43677 6.29012 2.73988 6.72554 2.94668 7.20476C3.15348 7.68398 3.25992 8.19761 3.25992 8.71632C3.25992 9.23503 3.15348 9.74867 2.94668 10.2279C2.73988 10.7071 2.43677 11.1415 2.05466 11.5083Z" fill="#1D1D1C"/>
</svg>
